# Blender v2.68 (sub 0) OBJ File: ''
# www.blender.org
mtllib corridorTile.mtl
o Plane
v -3.000000 -0.000000 3.000000
v 3.000000 -0.000000 3.000000
v 3.000000 0.000000 -3.000000
v -3.000000 0.000000 -3.000000
v -3.000000 5.000000 -2.999998
v -3.000000 5.000000 3.000002
v 3.000000 5.000000 3.000002
v 3.000000 5.000000 -2.999998
vt 0.006324 0.866609
vt 0.004657 0.322974
vt 0.548292 0.321306
vt 0.549960 0.864941
vt -0.000069 0.218726
vt 1.002808 0.215850
vt 1.005205 0.997254
vt 0.002328 1.000130
vt 0.004713 0.164726
vt 0.995167 0.169594
vt 0.991110 0.994972
vt 0.000656 0.990103
vn 0.000000 1.000000 0.000000
vn 1.000000 0.000000 0.000000
vn -1.000000 -0.000000 0.000000
usemtl Material001
s off
f 1/1/1 2/2/1 3/3/1 4/4/1
f 1/5/2 4/6/2 5/7/2 6/8/2
f 3/9/3 2/10/3 7/11/3 8/12/3
